/* XPM */
static char *result[] = {
/* columns rows colors chars-per-pixel */
"100 100 49 1 ",
"  c #3F1D0D",
". c #3F2010",
"X c #411E0E",
"o c #421F10",
"O c #43210F",
"+ c #49240F",
"@ c #452211",
"# c #4B2614",
"$ c #4E2915",
"% c #512C16",
"& c #5A2F17",
"* c #532E18",
"= c #592F19",
"- c #543017",
"; c #5D3117",
": c #553119",
"> c #5C321A",
", c #62351C",
"< c #65391E",
"1 c #693A1F",
"2 c #703C1F",
"3 c #5B3721",
"4 c #5E3922",
"5 c #643720",
"6 c #663A21",
"7 c #6B3D22",
"8 c #713E21",
"9 c #6E4124",
"0 c #6D442A",
"q c #734325",
"w c #784626",
"e c #764827",
"r c #784827",
"t c #754728",
"y c #784728",
"u c #76492A",
"i c #7B4D2B",
"p c #7E512E",
"a c #754C30",
"s c #7C4E30",
"d c #7E5231",
"f c #7F5538",
"g c #804F2F",
"h c #80512F",
"j c #835532",
"k c #845936",
"l c #855B39",
"z c #895F3D",
"x c #8C623E",
/* pixels */
"rriirt,tyrytriiipiipiiipiiihiyyiiiigiirrrisgiiigrrriiiiiyygir76tyyriiii7>tqqt7t8ttut765yyiiyiiiiyrrr",
"rrryr6qryuiriiipiipiipiiipiiiyyiigiiigiyrriigiiiyrriiggiigiiirrq118ipiri16tqt87qt787838igiiigiiryyrr",
"yuuyu1tyryriiiihpipiiiiihjhiiiiiiiriiiirrryiiiiryyriiiuyywyiirryiit6qrir01qqtt7t7t7t85gsgigiyyrrytii",
"iirrr1qyriiipipipprpipiphjjhiiiiiiiyigiiryyrigyyririiyiiiiiiiirrgiiiq1qt6,uqt08tt7t757iiiiyyyyrryyii",
"iisii8qiiiiiippipiiiiirdjjjjrriiiygiyiiyrrggiiyiririiyiiiigiiiyigiiriq77w,qqqqt8t78q57iiiiiurryyrrgi",
"uyiiui6iiiippiippipiiyihkjjjrrruiyiiiiyyriiiigiirttirtisiiiiiiiiiiyrwyiir,7qtq7t7tq877iiiiiiirrtiiii",
"yyrrui88iiiipipipiiiirijhhjjruyrgygiisrrriiiyiiiiiyryiiigiiiryiigiiryrriq,qt77t7q0q0,7yyyrrrttityiii",
"iyrigii6eiiiiiipipi9qrisrriiiurriyiiiirrwrggywgiiiyrrriigiiryyyiiiiiryyu,,7qt77tt888,tyyyiuryririyyy",
"irriiiri19iiiiiiir1$>uiprrwqrriryriggiwywigiiyiiigiirwiiyyrriyrryyrrrrtq5t7808807087,yyrrriyrityygiy",
"rrggiwgip29iipiiy,$O>ipjjgigggggwryiiiwyriiiiyiyiiiigigigyrriytiirrrtii85t508808t807,yyrriirryyryyii",
"giiiwigiip91iii9,#X@>iijjjjhhjhgyyyriiwiiipiiurywwriiiigiwryiiiiiyrwryy75778t80tt8857yyyyyyrtrryyyis",
"igirriireriq<9<>%#o@:pidjjjhjjhhgiiiiirrigiiiyitrrrrgiiiigirsiiiiurtiirq,5t080887085tryuritiiyiyrrii",
"igrrrrrwiiit<,-$%*%@+qiijjjjjkjhjigiiiiigirrririrriygiiiiiirgiigiruqriiq>11808ttt775turiitityryirrii",
"iirrrrggiiqu<;$-:::#X18igjkjkkjjgjiiiiiigirrrtyurrriiigiigiiiiiirryq7ii17w878t700857uyryyiyiuiiryryt",
"rwwq882wq8e1>$%-*::$X&yiiijjjjjhgiigiiiiiiiyiriiyyiiiiiipiiiipigiyrrtq1,tyi5q77q8058yyyyyyiryuyyyuyy",
"gww8w828w8r,-$--*::#X,iigjjjjjjhiiiigigwwwwryyyrryisiripiiipiiiiiurrr,6ryyi680qq08>tyyrirityriiyrrrr",
"w28qwqqw88i>$$----:#O0iihkjjjkppppiiirrrryrirrrryriiiiigiiiipipiityty,qrrrr77q8qq8,qrryuryryyiryitri",
"rriigrgrrti;$:----%#%iipjkkkjhpiiuuiigiiitirurrrrriyiiiiigppiiiiirriq,rtrrrq156q07,8iryiiuiuytiyryti",
"gpiihhggipi:$:::--$@9iijjjhjhirq<$@$>9tritiirrrisssigigiiihiigrrrrru,5qtrrriyt197,6yuyyruyririyiytyi",
"iihhjhhgpiu*%:--:-#:piihjjpphe,;*$#$@@#%*$>irrwhjggggjjiihipiiirrryr8,,,trytyrr,>7yyyyuiyiytiyirriyr",
"hhjjjjjhip9%-::::$+piipipiii2,:$-:*:-%#Xo@6irrihjiyyygjiiipiiiiriityrri76ryrrrr9>ywyrriryyiyyrrttiry",
"hjjkjhrgpp0%%:::$@uipiiipii9>-$-:---::#@@6piiihjji8y8ujgppippiirrrytryri5riritry,yyyyiuyriryirityrrt",
"jkkjjiwrpd9$%:::$32<,,1ipie>%%:::-:%-:%##iiiiijjkju8ygjgippiirryrryyrryr,tyrityr65yyyryiirruyryiiiri",
"jjkjjhgrpf>$%::-@0iii91<1u>-$:-------:%@%iiiiphjjjjggjjjpiiiirrryuytiiir68yriyyrq,rwytiryyryytyiiiry",
"jjjkjjhihp;-%::$Oapppippu>:$:::--$--:$#@9ipiiphhjjjjjjhhrppiiiprrrriiiiyt,yiirrw11rriyrryiiyrrriiuyy",
"jjjjjjhphe:+%::$@0iipdda>%-:::::::::$#O<piiiiiiihjjjjjhirpiipiipprrriiiii,qiirrt,qyrtyiruryyrriiiiyy",
"jjkjjjihd9-$:::$#$0aa0:-$:::>::-::$$@.<ipiipiiiirhhjjhihpiiiriipgwirrgrri86iitrt,rriiytyiiruuyiiiiii",
"hjkjjhiid6--:::-$#@O..#-:::::::-$$@.O9ipiiphjjhprhiihiiiipipirrirriiiiiiit,yryr,1wrirytiirrryryiggii",
"hhjjjhhik<$-::::-------:::%%$@O  O-1iipphjjjjhhhhiihhiihiiiiiiiirrrgiirhii1yiii,uyiirtyiirryyiyiiiii",
"hhjhhhiid:%:--:::-:::::-$@@$:*%9eepripjjjphjjjjhiihrrhhriihipiiigigiigiiii,qii,7yiiyriryrriyriyygiii",
"grhhiirip$:----::::::-#@*0fjiiq>iippjjjjirrrjjjjjiiihrrrhrihihiggiippiiiii5tiq>ryiiiiiiiihgrrsiyiiii",
"gghhihhj9%:-----::::-##afiiipipe<pppjjjjrrrrrhjjjhrrw888wriiiirq2qiiiiiiii1rr,>qrgu18iikjjhiyiaiirq9",
"piiiippf-%::-----::-$#0piiippipe<eiipkjjeeererjjjjh8e222e2rrrr228w2wgwhrhr1r91&,6t1y96qqquuttiiq69ti",
"ppipiix0*$%:-:-:-::$#.diipipiippe<ipipkjpeeeeijjkjhhiirrr22r22h28w8w22wgr21hqrrrr1qsrrkkjsu9557iiiip",
"ipiiiix<:$$:--:--::###pipiepipiip<9pipphjiephjjkjhhipiiprr22g222w88www22irqiiiriiriiyigjjisjrrrihiii",
"pipiipx<>$#:%------$$.afpiipiiiiie,eiippkkppjjjkjhhiiiiiiir2222g888q222griiipr11rriirjijjjirriiigiii",
"iiipipka>*#*::---:::$#.:<9epiipiipe1iiiiipkpjjkkjjpippiiiiiighg2rwq8888q2re96:%$iyyiiijsjsyrrrgiihii",
"ippiipil0>*$::-:::::--$.....O-9iiipe1eie99epkjkkjhipiipiihiig2hhpiirwwrq2;;:+OO>wyiysjhhgirrryiiiipi",
"ipippjpik7>:$$--::::::--$-$$O..-epiii919epeeejpphiiiiipiiirihhh2epiihp6>;-++OOOtyriiigjjjjiyrrripiii",
"pppedjppikq,>:$+$%-:::--------$++9ipiipiiiiie29922qrpiiee2112222pippi,>%+---$O$prririgjiigsrtiihhiii",
"pipijjjjhihppu99:%@$-:::---------.4eiiiiipiiiieipie99e9eeiipiiieqipd6=$$:--:-O-erriirsiyuiggiygjjjjh",
"ipiijjjjjhpiipkdfd9-#$::---------+O+<iiipipiiipiiiiieeeiiiiiiiie1ipu>$%:--::%O$irriuyiiuiijgsijjjjjj",
"pepipjjkjjjjdppipidp4:%---------- O+-ipppiiiiipiiiiieipiiipiipiprpf1$*:-----$X>piiiirigjggjgijjjjjjj",
"ipiiipjkjkjjpjpppiipk0:%---------$-<epjjjiipppipppiipiipipippiiiiiu=$:%:--:%O 9piiiyrggjjkjjkkgjjjjj",
"iii11<ejjjjhiiipjppppjd>:----+---;969jkkjpiipppiiipipippipipiipiip7$$:::-:*$O>p9siyigggjjjjjlzjiphhh",
"ie9629<pjjjjppijkdpiippx0:;----;<dphd0ukjjiiiiippppiipiipiiipiiiid:$::*-:*#@,i9>qiijdjjjjjjjjjjsppph",
"<9,99191pjjjieeihku9<<66efe9<1eidrpjkkiajkpipipippippiipippjppipk7$*::::*$#6ii>>,yjjjjsgjgiiigjjhpjh",
"iie<9991ipiiiiiiieikppippipkpphrqeriipdiiieiiiiiiiiiiihjjjhjjjppu:$::::$$%9ipp,uy,tjjjjsgiigiigghpjj",
"iiii11<<eipiiiie2ejjjjppiiiihrr2eriripkjpeeeiiiiieppppjkjjiihhpk>%$:::*@4diaii,rieqipppipirpuiiihpjp",
"ipiipee<<eiee929iijjjkhppiiprr2r2eriijjjpieeeeeeeeeippjjjjiijppe:$%::%#-fi9ei9:iiipppirieipppiiipipi",
"ippiiiiee199eeiiiihhjjjkhhpirree2eiiphkjppiieeeeeeeeppkkjjjjppp;$$:::#.aipr<,,qipii91>,>:>epiipiiiii",
"ppiipiiiiiiipiiiirihhjjjjjhprreerrihjjjpppiiiiiipeeeppkpkkjjpp9-$:::%$@kiiiruiiii9,>:%%$$O+6ipippipi",
"ipppippppiipiipireihkjkjjkhipiipiihippppiipipippiipeepkkkkdppp---:::%$@fiiprppdu<>-$$$-:-%$@,iiiiiip",
"piippiipiipiiiieeiiihjjhjkpiiiiihriiipppiiipipipipieepkpkfppp---:-:::$$@0fxldi1:-$%-:-----*$@#5uippr",
"ipiiiiiiipiiieeeiipippipjhiiiippipiiiiipiipipipippipeeppkjfx------::::%$O O$:%%$:::--:----:%@o#O,prp",
"pippipiiiiiiiipiiiiiipiipiipppipipippipippipipiipiiiippikpf:-------:::::$$$$$-:::::---:%:--:#X@#9ipi",
"piiiiiiiiriirihipipiipiiipiiipippippiipippiipiipppiiijkppx<--------:::::::--::::::::-%:---:%$X6iprrp",
"eipppiiiiipiriiiiiipiipipipppipiipipppppippiipppiippippipx<;-+---:--:::::------->::::%-:-:%#@%iiippp",
";eiiiiipipirririipiiiiiiippiipipipiipiipipipippipipiipipix;-$+-----::::$$#@$##@.+#--::%%$$@X%uiiipri",
"e;iipiiiiiirrriiipippipiiipipipppippippipipipiipppipiiiiik9--------%::$$.3adpddp9-@..... X%6uriipree",
"9<eippiiihirrpiiiipieipippippipipipppipiipipippiippiipi9ipd>----%%:::$$O:pipipiipiir94::5quttgiiiiii",
"2<iiiippiirrriiiipieiiipippiipipppiiipippipippippippii1iiid4-$--::-::-@ fpiiiiiiiiipuiiiirr75iiiirri",
"9;eiipipiiihiiiipiieeiiiippiippiipippipiipipiiipiiippii9pipp>:$-:::::%$.dppiiiippiii<iiirryq5iiiirrr",
"9<9ipipihiipiiihiieeeiepiipppipppipippippipiippippiiiii9pippp9:+$:::::$.3dpiprpepiir<rigiry77girrrrr",
"99<iipipdiiipppipprrrrrpipihiipippeppippppeppippppepppeepppiipp<-------- $0piiiipipe;piipie>epreyiyr",
"19<1iipiiipiiiiiiirrriiiipipppppippppppeippppppeipppieekppieepppe-+-----$@.*0piriip99iipii,9piiriiry",
"919>9iiiiiiiiriiiiiiipiiipiiiiippppieppppppieppppppipeeeeeeeipiipp:--::::-$..-uiiiiq<iipe<9pireriiyi",
"1919;eiiitirrrriipiiiiipippihpiipeppppippeppppippeppppppppppiiiiepd--::-:---# Oqiiii99ie>eprrrirryyi",
"77791,errrrrrrriipppiipiippiipipppepeppppiepppepipipeppppiipjhiiippe-+-----:-$O+piiip9e99iiiirrurrrt",
"77779<<iirriiiiiiiiiipippiiipiipipppppipipppippppipipppppppijkhpiepk0----------O>iipi9e<ripiprrryyiy",
"779692;qipiiigippippipipipppippipiepppeppppipppiepppippphpphjjjjpiipf>--:-----:%O9iii>9<ipipigiuuyuy",
"7819991,ut1ipiipipippipipiippippppppippppepppeppipiipppeipphhhjjkiipfd:$%:------$$iie;>>iipr17765775",
"77878077553tiipiipippiippipiphiieppipppippipipipiepphhrrhiiiippjjpiiike;--------+O:ii>;>iiu6tttqqq7t",
"67777778775tpipipipiippiipiiiiihpppppeppiipppippipperrrhrhhiipihjhipiik9;-$----$.OO4p,;><i6qrrutt8u8",
"5777787778>tpiihipippppppipppppipieppipppppiipiiieeer2r2eerhiiihjjpiihhke>;--$--:>>9ii<>:91rtttttt87",
"u7556777773tiipiiipipiippiiiiipppppppppepiippiiipe9e2r2r2eiiipihjjppiiirdde1<><euiiiiipe6;qruuttu8y8",
"iiuiq677775iiiiiiiipppipppipppippppipppiiipippipeeee22r2rrrhrhihkjjhhiihpppppdjippiipiipi1qtttrtut87",
"iiiii677758yyuripiipiipiiippippipeippeppppppipiipeee2e22rrhrhrihjjjjhihhiiipppphpjpirpiii67ytrrtu8y7",
"ipiprt667>yiyyripiiiipiiippipipipppppipppieppipiipiirrrhhhrhhiihjkkjhhrriiiippkjjhdipiiipq6ttuttuya8",
"iiiiiiq1558uyyiiiiipiippiiipiipiippepppeppppipiiiiiiiiiirhrhrihhjkjkhr229eipjjjjjkkiiipppd6iisiiayt8",
"piiiiipi755yrriiiipiiiihiiiihhiiipipippipppipippiiippiipiiiipiiijkjjhgg82wggkjjjkkjhiiiijju0pdissgsy",
"iiiippii77,tiiiipiierhiiihhiiirhpipipiippiippiipppiiiipippppipiihhjjjhrw222gjjkjjjjhihihhjp9uqqtssys",
"pippipip57,tyigiiiieriiiiiiiihhippipipipppppipppipippipiipippipihiihjjh22wwgjjkjjjjhiirrhjj9qqqqyssy",
"piiipiii67,ysiiiiiierrhhhihiiirhiipipipiiipippiipipippipippippipiihhhhiwg2wghjjhjjirirrrrhj9qqq9tysy",
"ipipiipiu5,yiyyrireerreerrriihrhipippppipipipiippipppipppipiipiihhrihhrhw22ghjjjhiiiirrrii0tqqqq8usi",
"iiiiiiigiy>ytyyyereerrieirrreihiiiipiippppipipppippiippiipippippiirhrhhrggggjhkhiiiiiiiiii6suqq0tuss",
"prrrrrriyq=yu778eeeerrrerrrrihriiiipippiipippipiippiippipipipiipiihirrrrrggghihpiiiiiihii77ssuuaisss",
"rrrrryyyyy,157761<19rrieeirrrrreeiiiiipipipiipipppippippipipiipphhiihhrwgrwgiwiihihiihiii68isgsssgig",
"rrrityrrrru=788t8086,tryirrrrrrreeiipiipppppppppipipipipipiiihpiipipipiiiipiiriiiiriyiir66ttisigssgs",
"rrrrriuirru75qq8t8q0q6tyrerrrririeeipipieippeippippipipiipihpiippipiiiiipiiiipiiiiyryyy,1twtrsssssis",
"9utriryrytry555778qqq67yrrereeereeeeipippppepppeppippipipiiipippiiiihihiippiiiiiiiiirr71tttttisgsiiu",
"1trruyuiirrruq5,7t7qqq77rrrrriiiiieeiiippppipppiippiipipiippippipppiriiiipihipihigigii7,tttttttrrutt",
"5yyuyrrirriryyi5578q08q59rrriiiiieeiipppieppppppepppppipppiiippiiiiriihiihiiiiiiiriiiir6,7tttttttrtu",
"1yyyyyyyywyyyyyy55t7q70819rriiereeippepeppppeppippiipiipipppppiphhiiiiiipiiiiyiiriyyiiiyt6,0tyyrtutr",
"7iiiiirryiwwq2yyu577qq9q9619errriiiiipppppipipippppppppppiipipipiiiipiiigiigiyyriirrrryiiiq,tttiutru",
"qiuiiirywwiq228iu7587qq9qq9218wiiippiiiippepppiipiiiiipiipiiippiihpiiiihiiiiyuigiirryiriiii17tttuuee",
"yiyiriiyrr88288wy7,q8qt7008t877asiiiiippippipipiiihihihiphiihippppipipppiipiiihihrrerrrrhre<eeeeeiei",
"iiiisiyyyt22228wi,787t808t0880a78siiiiippiipiiiiiiiihiiiiiihiiipippiipiipiiiiiiiirerrhrhhe;eeeeeeeee",
"rriyrryyyq88288yy=7q08t7088ttt8t6qyyriigpiiirhirrrhiiiipiiihippiippiiiiiiiiiihihhhrhhhrri92eeieeeeee",
"ryyyryrirq2228yyt>q88t7tt0878t08q,isgiiiippiiihihiiiihiipppiipipppippipiirrpirhirrhihrhri92eeeeereee"
};
